<svg xmlns="http://www.w3.org/2000/svg" fill-rule="evenodd" viewBox="0 0 280 280"><path fill="#0891b2" d="M280 36.5v207c0 13.246-10.754 24-24 24H24c-13.246 0-24-10.754-24-24v-207c0-13.246 10.754-24 24-24h232c13.246 0 24 10.754 24 24Z"/><path fill="#fff" stroke="#0891b2" stroke-width="10" d="M275 165.5v78c0 10.486-8.514 19-19 19H24c-10.486 0-19-8.514-19-19v-78c0-10.486 8.514-19 19-19h232c10.486 0 19 8.514 19 19Z"/><path fill="#0891b2" d="M150.813 238.021c-5.33 0-10.448-.668-15.369-2.004-4.905-1.337-8.9-3.045-11.998-5.134l6.045-13.546c2.893 1.868 6.242 3.402 10.054 4.616 3.804 1.2 7.593 1.793 11.359 1.793 2.529 0 4.564-.228 6.106-.699 1.556-.463 2.688-1.078 3.401-1.853.707-.79 1.064-1.701 1.064-2.734 0-1.495-.684-2.672-2.036-3.523-1.359-.866-3.12-1.579-5.285-2.126a154.4 154.4 0 0 0-7.198-1.671 73.899 73.899 0 0 1-7.897-2.156c-2.613-.866-5.005-1.99-7.169-3.372a16.54 16.54 0 0 1-5.285-5.467c-1.359-2.263-2.035-5.133-2.035-8.596 0-3.888 1.063-7.411 3.189-10.57 2.127-3.159 5.323-5.688 9.599-7.593 4.267-1.922 9.583-2.886 15.946-2.886 4.267 0 8.459.486 12.575 1.458 4.108.957 7.775 2.354 10.995 4.192l-5.68 13.637c-3.083-1.655-6.135-2.9-9.173-3.736-3.022-.85-5.953-1.275-8.808-1.275-2.536 0-4.579.266-6.136.789-1.541.532-2.657 1.231-3.341 2.096a4.778 4.778 0 0 0-1.002 2.977c0 1.42.653 2.544 1.974 3.371 1.337.836 3.098 1.512 5.285 2.036 2.202.531 4.625 1.078 7.26 1.64a74.215 74.215 0 0 1 7.866 2.096c2.628.835 5.027 1.943 7.199 3.341 2.164 1.382 3.903 3.204 5.224 5.467 1.337 2.248 2.005 5.072 2.005 8.474 0 3.767-1.063 7.244-3.189 10.419-2.126 3.181-5.316 5.733-9.568 7.654-4.237 1.921-9.56 2.885-15.977 2.885ZM40 171.806v64.909h49.327v-14.549H58.346v-50.36H40Zm56.566 0v64.909h18.346v-64.909H96.566Zm105.254 14.549v50.36h18.346v-50.36H240v-14.549h-58.136v14.549h19.956Z"/><path fill="#fff" d="M40.176 125.407c2.123.576 4.331.865 6.63.865 2.769 0 5.066-.416 6.894-1.245 1.834-.829 3.21-1.93 4.127-3.302a7.918 7.918 0 0 0 1.376-4.495c0-1.468-.288-2.686-.865-3.656a6.85 6.85 0 0 0-2.254-2.359 12.99 12.99 0 0 0-3.105-1.441 32.071 32.071 0 0 0-3.394-.904 120.035 120.035 0 0 1-3.132-.708c-.944-.226-1.704-.518-2.28-.878-.57-.357-.852-.842-.852-1.455 0-.478.144-.907.433-1.284.294-.373.776-.675 1.441-.904.672-.226 1.553-.34 2.647-.34 1.232 0 2.496.183 3.8.55 1.31.36 2.628.897 3.958 1.612l2.45-5.884c-1.389-.793-2.971-1.396-4.744-1.809a23.482 23.482 0 0 0-5.425-.629c-2.745 0-5.038.416-6.88 1.245-1.844.823-3.223 1.913-4.14 3.276-.917 1.363-1.376 2.883-1.376 4.56 0 1.494.291 2.733.878 3.709a7.142 7.142 0 0 0 2.28 2.359 13.76 13.76 0 0 0 3.093 1.454c1.133.377 2.27.688 3.407.931 1.133.236 2.168.478 3.105.72.934.236 1.694.544 2.28.918.584.367.878.874.878 1.52 0 .445-.154.838-.458 1.179-.308.334-.796.6-1.468.799-.665.204-1.543.302-2.634.302a16.236 16.236 0 0 1-4.9-.773c-1.645-.524-3.09-1.186-4.338-1.992L35 123.192c1.337.901 3.06 1.638 5.176 2.215Zm30.51-10.942v5.124h14.637v6.119H62.85V97.705h21.962v6.12H70.686v4.717h12.45v5.923h-12.45Zm33.004 11.807c-2.211 0-4.258-.354-6.145-1.062-1.88-.707-3.506-1.71-4.875-3.014a14.162 14.162 0 0 1-3.224-4.625c-.77-1.773-1.153-3.728-1.153-5.871 0-2.13.383-4.082 1.153-5.858a14.099 14.099 0 0 1 3.224-4.612c1.37-1.31 2.994-2.32 4.875-3.027 1.887-.708 3.934-1.062 6.145-1.062 2.585 0 4.895.456 6.933 1.363 2.044.91 3.747 2.215 5.11 3.918l-5.045 4.56c-.901-1.064-1.893-1.877-2.975-2.437-1.084-.557-2.29-.838-3.616-.838-1.153 0-2.212.19-3.172.563-.926.349-1.763.9-2.45 1.612-.681.707-1.219 1.556-1.612 2.542-.386.99-.576 2.08-.576 3.276 0 1.206.19 2.303.576 3.289.393.99.93 1.835 1.612 2.542a6.79 6.79 0 0 0 2.45 1.625c.96.367 2.019.551 3.172.551 1.326 0 2.532-.279 3.616-.839 1.082-.557 2.074-1.369 2.975-2.437l5.045 4.56c-1.363 1.677-3.066 2.981-5.11 3.905-2.038.917-4.348 1.376-6.933 1.376Zm18.806-3.394c2.323 2.264 5.55 3.394 9.684 3.394 4.131 0 7.355-1.13 9.671-3.394 2.323-2.27 3.486-5.491 3.486-9.658V97.705h-7.797v15.279c0 2.405-.469 4.125-1.402 5.163-.937 1.042-2.228 1.56-3.879 1.56-1.651 0-2.955-.518-3.905-1.56-.944-1.038-1.416-2.758-1.416-5.163v-15.28h-7.927v15.516c0 4.167 1.159 7.388 3.485 9.658Zm28.209 2.83V97.705h12.803c2.558 0 4.763.416 6.617 1.245 1.851.822 3.283 2.014 4.298 3.577 1.013 1.556 1.52 3.404 1.52 5.543 0 2.107-.507 3.928-1.52 5.465-.952 1.435-2.272 2.553-3.96 3.357l6.044 8.816h-8.478l-5.084-7.443h-4.325v7.443h-7.915Zm12.318-13.563h-4.403v-8.203h4.403c1.651 0 2.883.364 3.695 1.088.819.718 1.232 1.73 1.232 3.04 0 1.278-.413 2.277-1.232 3.001-.812.717-2.044 1.075-3.695 1.075v-.001Zm17.287-14.44v28.003h7.915V97.705h-7.915Zm19.525 28.003v-21.726h-8.61v-6.277h32.808l6.63 11.116 6.658-11.116H245l-10.719 17.963v10.04h-7.928v-10.162l-10.046-16.783v5.219h-8.557v21.726h-7.915ZM56.622 81.983c-3.105 0-5.98-.497-8.63-1.49-2.641-.994-4.923-2.402-6.846-4.233a19.898 19.898 0 0 1-4.527-6.496C35.54 67.275 35 64.53 35 61.52c0-2.99.538-5.732 1.62-8.225a19.77 19.77 0 0 1 4.526-6.478c1.923-1.84 4.205-3.257 6.846-4.25 2.65-.994 5.525-1.491 8.63-1.491 3.63 0 6.873.64 9.735 1.914 2.87 1.279 5.263 3.11 7.176 5.502l-7.084 6.404c-1.266-1.496-2.66-2.636-4.177-3.423-1.523-.782-3.216-1.178-5.08-1.178-1.619 0-3.105.267-4.453.791a9.392 9.392 0 0 0-3.44 2.264c-.958.993-1.712 2.185-2.264 3.57-.543 1.39-.81 2.921-.81 4.6 0 1.693.267 3.234.81 4.619.552 1.39 1.306 2.576 2.263 3.57a9.56 9.56 0 0 0 3.441 2.282c1.348.515 2.834.773 4.454.773 1.863 0 3.556-.391 5.079-1.178 1.518-.782 2.911-1.923 4.177-3.423l7.084 6.404c-1.913 2.355-4.306 4.187-7.176 5.484-2.862 1.288-6.105 1.932-9.735 1.932Zm21.864-.791V41.867H89.6v30.51h18.77v8.815H78.486Zm45.384-.718c2.659 1.003 5.562 1.509 8.704 1.509 3.189 0 6.101-.506 8.741-1.509 2.636-1.017 4.932-2.438 6.883-4.27a19.947 19.947 0 0 0 4.582-6.495c1.104-2.489 1.656-5.217 1.656-8.189 0-2.953-.552-5.668-1.656-8.133a20.287 20.287 0 0 0-4.582-6.496c-1.951-1.85-4.247-3.28-6.883-4.288-2.64-1.017-5.552-1.527-8.741-1.527-3.142 0-6.045.51-8.704 1.527-2.663 1.008-4.977 2.438-6.937 4.288a19.85 19.85 0 0 0-4.582 6.496c-1.081 2.465-1.619 5.18-1.619 8.133 0 2.972.538 5.695 1.619 8.17a19.821 19.821 0 0 0 4.582 6.478c1.96 1.854 4.274 3.29 6.937 4.306Zm12.9-8.483c-1.288.515-2.687.773-4.196.773-1.499 0-2.889-.258-4.177-.773a9.704 9.704 0 0 1-3.367-2.282c-.957-.994-1.712-2.18-2.264-3.57-.543-1.385-.809-2.926-.809-4.619 0-1.716.266-3.257.809-4.619.552-1.37 1.307-2.558 2.264-3.551a9.535 9.535 0 0 1 3.367-2.264c1.288-.524 2.678-.79 4.177-.79 1.509 0 2.908.266 4.196.79a9.539 9.539 0 0 1 3.368 2.264c.956.993 1.702 2.18 2.245 3.551.538 1.362.809 2.903.809 4.62 0 1.692-.271 3.233-.809 4.618-.543 1.39-1.289 2.576-2.245 3.57a9.708 9.708 0 0 1-3.368 2.282Zm41.659 9.992c-5.806 0-10.338-1.587-13.599-4.766-3.267-3.188-4.895-7.71-4.895-13.562V41.867h11.133v21.457c0 3.376.662 5.791 1.987 7.25 1.334 1.463 3.165 2.19 5.484 2.19s4.131-.727 5.447-2.19c1.311-1.459 1.969-3.874 1.969-7.25V41.867h10.949v21.788c0 5.852-1.633 10.374-4.895 13.562-3.252 3.179-7.779 4.766-13.58 4.766Zm26.013-40.116v39.325h18.586c4.343 0 8.161-.8 11.465-2.411 3.298-1.62 5.874-3.892 7.728-6.827C244.071 69.01 245 65.532 245 61.52c0-4.035-.929-7.512-2.779-10.434-1.854-2.93-4.43-5.198-7.728-6.808-3.304-1.606-7.122-2.411-11.465-2.411h-18.586Zm18.145 30.455h-7.03V50.737h7.03c2.245 0 4.2.423 5.87 1.27a9.299 9.299 0 0 1 3.901 3.68c.929 1.61 1.399 3.551 1.399 5.833 0 2.259-.47 4.205-1.399 5.833a9.251 9.251 0 0 1-3.901 3.7c-1.67.846-3.625 1.269-5.87 1.269Z"/></svg>