<svg xmlns="http://www.w3.org/2000/svg" fill="currentColor" viewBox="0 0 24 24"><defs><mask id="a"><path fill="#fff" d="M0 0h24v24H0z"/><path fill="#000" fill-rule="evenodd" d="M12 8.625a2.19 2.19 0 0 0-2.187 2.188v1.562a.94.94 0 0 0-.938.938v3.124a.94.94 0 0 0 .938.938h4.374a.94.94 0 0 0 .938-.937v-3.125a.94.94 0 0 0-.937-.938v-1.562A2.19 2.19 0 0 0 12 8.625m1.25 3.75v-1.562a1.25 1.25 0 1 0-2.5 0v1.562z"/></mask></defs><path d="M4.5 9.75a6 6 0 0 1 11.573-2.226 3.75 3.75 0 0 1 4.133 4.303A4.5 4.5 0 0 1 18 20.25H6.75a5.25 5.25 0 0 1-2.23-10.004 6 6 0 0 1-.02-.496" mask="url(#a)"/></svg>