<svg xmlns="http://www.w3.org/2000/svg" viewBox="0 0 864 126"><g fill-rule="evenodd"><rect width="864" height="126" fill="#fff" rx="24"/><rect width="199" height="116" x="660" y="5" fill="currentColor" stroke="#fff" stroke-width="10" rx="19"/></g><path fill="#fff" d="M768.466 86.313c-3.657 0-7.167-.459-10.542-1.376-3.365-.916-6.104-2.088-8.229-3.52l4.146-9.292c1.984 1.281 4.281 2.333 6.895 3.167 2.61.823 5.209 1.229 7.792 1.229 1.735 0 3.13-.156 4.188-.48 1.067-.317 1.843-.739 2.333-1.27.484-.542.729-1.167.729-1.875 0-1.026-.469-1.834-1.396-2.417-.932-.594-2.14-1.083-3.625-1.458a105.65 105.65 0 0 0-4.937-1.146 50.721 50.721 0 0 1-5.417-1.48 21.887 21.887 0 0 1-4.917-2.312 11.362 11.362 0 0 1-3.625-3.75c-.932-1.552-1.395-3.52-1.395-5.895 0-2.667.729-5.084 2.187-7.25 1.458-2.167 3.651-3.902 6.583-5.209 2.928-1.318 6.573-1.979 10.938-1.979 2.927 0 5.802.333 8.625 1 2.818.656 5.333 1.615 7.542 2.875l-3.896 9.354c-2.115-1.135-4.209-1.99-6.292-2.562-2.073-.584-4.083-.875-6.042-.875-1.739 0-3.14.182-4.208.541-1.057.365-1.823.844-2.292 1.438a3.277 3.277 0 0 0-.687 2.041c0 .974.448 1.745 1.354 2.313.917.573 2.125 1.036 3.625 1.396 1.511.364 3.172.74 4.979 1.125 1.802.375 3.604.854 5.396 1.437 1.802.573 3.448 1.334 4.938 2.292a10.891 10.891 0 0 1 3.583 3.75c.917 1.542 1.375 3.48 1.375 5.813 0 2.583-.729 4.968-2.188 7.145-1.458 2.183-3.645 3.933-6.562 5.25-2.906 1.318-6.557 1.98-10.958 1.98Zm-76.007-45.417v44.52h33.834v-9.979h-21.25V40.896h-12.584Zm38.799 0v44.52h12.583v-44.52h-12.583Zm72.193 9.979v34.542h12.583V50.875h13.604v-9.98h-39.875v9.98h13.688Z"/><path fill="currentColor" fill-rule="evenodd" d="M302.538 84.938c3.375.916 6.885 1.374 10.541 1.374 4.401 0 8.052-.661 10.959-1.979 2.916-1.317 5.104-3.067 6.562-5.25 1.458-2.177 2.188-4.562 2.188-7.145 0-2.334-.459-4.271-1.375-5.813a10.894 10.894 0 0 0-3.584-3.75c-1.489-.958-3.135-1.719-4.937-2.292a51.026 51.026 0 0 0-5.396-1.437 192.77 192.77 0 0 1-4.979-1.125c-1.5-.36-2.709-.823-3.625-1.396-.907-.568-1.354-1.339-1.354-2.313 0-.76.229-1.442.687-2.041.469-.594 1.234-1.073 2.292-1.438 1.067-.359 2.468-.541 4.208-.541 1.958 0 3.969.291 6.042.875 2.083.573 4.177 1.427 6.291 2.562l3.896-9.354c-2.208-1.26-4.724-2.219-7.541-2.875-2.823-.667-5.698-1-8.625-1-4.365 0-8.011.661-10.938 1.98-2.932 1.306-5.125 3.04-6.583 5.208-1.459 2.166-2.188 4.583-2.188 7.25 0 2.374.464 4.343 1.396 5.895a11.343 11.343 0 0 0 3.625 3.75 21.866 21.866 0 0 0 4.917 2.313 50.704 50.704 0 0 0 5.416 1.479c1.802.375 3.448.76 4.938 1.146 1.484.375 2.693.864 3.625 1.458.927.584 1.396 1.39 1.396 2.417 0 .708-.245 1.333-.729 1.875-.49.531-1.266.953-2.334 1.27-1.057.324-2.453.48-4.187.48-2.584 0-5.183-.406-7.792-1.23-2.615-.833-4.911-1.885-6.896-3.166l-4.146 9.292c2.125 1.432 4.865 2.604 8.23 3.52Zm48.506-17.396v8.145h23.27v9.73h-35.729V40.896h34.917v9.729h-22.458v7.5h19.791v9.417h-19.791Zm52.471 18.77c-3.516 0-6.771-.562-9.771-1.687-2.99-1.125-5.573-2.719-7.75-4.792a22.532 22.532 0 0 1-5.125-7.354c-1.224-2.817-1.833-5.927-1.833-9.333 0-3.386.609-6.49 1.833-9.313 1.234-2.817 2.943-5.26 5.125-7.333 2.177-2.083 4.76-3.688 7.75-4.813 3-1.124 6.255-1.687 9.771-1.687 4.109 0 7.781.724 11.021 2.167 3.25 1.448 5.958 3.52 8.125 6.229l-8.021 7.25c-1.433-1.693-3.011-2.985-4.729-3.875-1.724-.886-3.641-1.334-5.75-1.334-1.834 0-3.516.303-5.042.896a10.627 10.627 0 0 0-3.896 2.563c-1.083 1.125-1.937 2.474-2.562 4.041-.615 1.573-.917 3.308-.917 5.209 0 1.916.302 3.661.917 5.229.625 1.573 1.479 2.917 2.562 4.042A10.807 10.807 0 0 0 399.119 75c1.526.583 3.208.875 5.042.875 2.109 0 4.026-.443 5.75-1.333 1.718-.886 3.296-2.177 4.729-3.875l8.021 7.25c-2.167 2.666-4.875 4.74-8.125 6.208-3.24 1.458-6.912 2.188-11.021 2.188Zm29.898-5.395c3.692 3.599 8.823 5.395 15.396 5.395 6.567 0 11.692-1.796 15.375-5.395 3.692-3.61 5.541-8.73 5.541-15.355V40.896h-12.396v24.291c0 3.823-.744 6.558-2.229 8.209-1.489 1.656-3.541 2.479-6.166 2.479-2.625 0-4.698-.823-6.209-2.48-1.5-1.65-2.25-4.385-2.25-8.208V40.896h-12.604v24.666c0 6.625 1.844 11.745 5.542 15.355Zm44.847 4.5V40.896h20.354c4.068 0 7.573.661 10.521 1.979 2.942 1.307 5.219 3.203 6.833 5.687 1.609 2.474 2.417 5.412 2.417 8.813 0 3.349-.808 6.245-2.417 8.687-1.515 2.282-3.612 4.06-6.296 5.338l9.609 14.017h-13.48l-8.081-11.834h-6.877v11.834H478.26Zm19.583-21.563h-7V50.812h7c2.625 0 4.583.579 5.875 1.73 1.302 1.14 1.958 2.75 1.958 4.833 0 2.031-.656 3.62-1.958 4.77-1.292 1.141-3.25 1.71-5.875 1.71Zm27.484-22.958v44.52h12.583v-44.52h-12.583Zm31.041 44.52v-34.54H542.68v-9.98h52.16l10.539 17.674 10.586-17.673h12.208l-17.041 28.558v15.963h-12.605V69.26l-15.972-26.682v8.297h-13.604v34.542h-12.583Z"/><path fill="currentColor" d="M59.035 85.917c-3.516 0-6.771-.563-9.771-1.688-2.99-1.125-5.573-2.719-7.75-4.791a22.535 22.535 0 0 1-5.125-7.355c-1.224-2.817-1.834-5.927-1.834-9.333 0-3.385.61-6.49 1.834-9.312a22.402 22.402 0 0 1 5.125-7.334c2.177-2.083 4.76-3.687 7.75-4.812 3-1.125 6.255-1.688 9.77-1.688 4.11 0 7.782.724 11.021 2.167 3.25 1.448 5.959 3.52 8.125 6.23l-8.02 7.25c-1.433-1.694-3.01-2.985-4.73-3.876-1.723-.885-3.64-1.333-5.75-1.333-1.833 0-3.515.302-5.041.896a10.632 10.632 0 0 0-3.896 2.562c-1.083 1.125-1.938 2.474-2.563 4.042-.614 1.573-.916 3.307-.916 5.208 0 1.917.302 3.662.916 5.23.626 1.572 1.48 2.916 2.563 4.04a10.812 10.812 0 0 0 3.896 2.584c1.526.584 3.208.875 5.041.875 2.11 0 4.027-.442 5.75-1.333 1.72-.886 3.297-2.177 4.73-3.875l8.02 7.25c-2.166 2.667-4.875 4.74-8.125 6.208-3.239 1.459-6.91 2.188-11.02 2.188Zm24.752-.896V40.5H96.37v34.542h21.25v9.979H83.787Zm51.382-.813c3.01 1.136 6.297 1.709 9.854 1.709 3.609 0 6.906-.573 9.896-1.709 2.984-1.15 5.583-2.76 7.792-4.833a22.554 22.554 0 0 0 5.187-7.354c1.25-2.818 1.875-5.906 1.875-9.27 0-3.345-.625-6.418-1.875-9.21a22.944 22.944 0 0 0-5.187-7.353c-2.209-2.094-4.808-3.714-7.792-4.855-2.99-1.15-6.287-1.729-9.896-1.729-3.557 0-6.844.578-9.854 1.73-3.016 1.14-5.635 2.76-7.854 4.854a22.478 22.478 0 0 0-5.188 7.354c-1.224 2.791-1.833 5.864-1.833 9.208 0 3.365.609 6.448 1.833 9.25a22.448 22.448 0 0 0 5.188 7.333c2.219 2.1 4.838 3.724 7.854 4.875Zm14.604-9.604c-1.458.584-3.042.875-4.75.875-1.698 0-3.271-.291-4.729-.875a11.006 11.006 0 0 1-3.813-2.583c-1.083-1.125-1.937-2.469-2.562-4.042-.615-1.567-.917-3.312-.917-5.229 0-1.943.302-3.687.917-5.23.625-1.551 1.479-2.895 2.562-4.02a10.812 10.812 0 0 1 3.813-2.562c1.458-.594 3.031-.896 4.729-.896 1.708 0 3.292.302 4.75.896a10.812 10.812 0 0 1 3.813 2.562c1.083 1.125 1.927 2.469 2.541 4.02.61 1.543.917 3.287.917 5.23 0 1.917-.307 3.662-.917 5.23-.614 1.572-1.458 2.916-2.541 4.04a11.006 11.006 0 0 1-3.813 2.584Zm47.163 11.313c-6.573 0-11.703-1.797-15.396-5.396-3.697-3.61-5.541-8.73-5.541-15.354V40.5h12.604v24.292c0 3.823.75 6.557 2.25 8.208 1.51 1.656 3.583 2.48 6.208 2.48s4.677-.824 6.167-2.48c1.484-1.651 2.229-4.385 2.229-8.208V40.5h12.396v24.667c0 6.625-1.849 11.745-5.542 15.354-3.682 3.599-8.807 5.396-15.375 5.396ZM226.387 40.5v44.52h21.042c4.917 0 9.24-.905 12.979-2.728 3.735-1.834 6.651-4.407 8.75-7.73 2.094-3.333 3.146-7.27 3.146-11.812 0-4.568-1.052-8.505-3.146-11.813-2.099-3.317-5.015-5.885-8.75-7.708-3.739-1.818-8.062-2.729-12.979-2.729h-21.042Zm20.542 34.48h-7.958V50.541h7.958c2.542 0 4.755.479 6.646 1.437a10.529 10.529 0 0 1 4.417 4.167c1.052 1.823 1.583 4.02 1.583 6.604 0 2.557-.531 4.76-1.583 6.604a10.483 10.483 0 0 1-4.417 4.188c-1.891.958-4.104 1.437-6.646 1.437Z"/></svg>